<?xml version="1.0" encoding="utf-8"?>
<!-- Generator: Adobe Illustrator 27.5.0, SVG Export Plug-In . SVG Version: 6.00 Build 0)  -->
<svg version="1.1" xmlns="http://www.w3.org/2000/svg" xmlns:xlink="http://www.w3.org/1999/xlink" x="0px" y="0px"
	 viewBox="0 0 750 500" style="enable-background:new 0 0 750 500;" xml:space="preserve">
<g id="Background_Simple">
	<g>
		<path style="fill:#92E3A9;" d="M663.944,182.095c0,0-42.714-77.053-181.744-89.616c-139.03-12.563-167.506,51.089-191.794,63.652
			c-24.288,12.563-84.591-12.563-170.019,25.126c-85.428,37.689-54.44,92.128-60.302,112.229
			c-5.863,20.101-31.826,37.689-32.664,52.764c-0.837,15.076,7.538,41.876,7.538,41.876h690.125c0,0,17.588-54.439-7.538-85.428
			c-25.126-30.989-41.877-30.989-43.552-49.414C672.32,234.859,676.507,206.383,663.944,182.095z"/>
		<path style="opacity:0.7;fill:#FFFFFF;" d="M663.944,182.095c0,0-42.714-77.053-181.744-89.616
			c-139.03-12.563-167.506,51.089-191.794,63.652c-24.288,12.563-84.591-12.563-170.019,25.126
			c-85.428,37.689-54.44,92.128-60.302,112.229c-5.863,20.101-31.826,37.689-32.664,52.764c-0.837,15.076,7.538,41.876,7.538,41.876
			h690.125c0,0,17.588-54.439-7.538-85.428c-25.126-30.989-41.877-30.989-43.552-49.414
			C672.32,234.859,676.507,206.383,663.944,182.095z"/>
	</g>
</g>
<g id="Birds">
	<g>
		<path style="fill:#263238;" d="M304.589,161.165c1.103-1.129,2.464-1.943,3.938-2.549c0.742-0.29,1.525-0.512,2.339-0.624
			c0.407-0.066,0.817-0.1,1.245-0.092l0.711,0.081c0.236,0.03,0.439,0.138,0.656,0.207c0.842,0.327,1.518,0.865,2.075,1.445
			c0.575,0.572,1.049,1.2,1.531,1.804c0.953,1.223,1.871,2.415,2.805,3.677l-0.863,0.132c0.295-1.771,1.062-3.392,2.264-4.719
			c1.176-1.33,2.682-2.379,4.321-3.029c1.644-0.677,3.398-0.85,5.097-0.892c0.851,0.022,1.698,0.107,2.529,0.207
			c0.827,0.17,1.646,0.363,2.445,0.589l-0.022,0.199c-0.832,0.117-1.645,0.199-2.448,0.259l-2.371,0.347
			c-0.386,0.084-0.767,0.181-1.149,0.252c-0.385,0.064-0.762,0.153-1.125,0.285c-0.367,0.116-0.737,0.211-1.104,0.316
			c-0.352,0.142-0.696,0.298-1.052,0.424c-1.382,0.579-2.702,1.299-3.801,2.323c-1.066,1.015-2.096,2.247-2.67,3.635l-0.441,1.067
			l-0.423-0.935c-0.607-1.342-1.46-2.624-2.525-3.657c-1.056-1.03-2.418-1.801-3.605-2.102c-0.301-0.083-0.578-0.098-0.855-0.125
			c-0.328,0.018-0.676,0.007-1.019,0.046c-0.688,0.07-1.39,0.175-2.091,0.339c-1.409,0.314-2.82,0.777-4.281,1.258L304.589,161.165z
			"/>
		<path style="fill:#263238;" d="M274.601,187.393c0.527-0.769,1.267-1.294,2.093-1.697c0.417-0.195,0.869-0.331,1.345-0.412
			c0.239-0.04,0.479-0.061,0.737-0.06c0.311,0.019,0.616,0.077,0.871,0.195c1.041,0.482,1.484,1.357,1.983,2.056
			c0.499,0.717,1.027,1.348,1.612,2.028l-0.863,0.132c0.1-1.062,0.464-2.043,1.156-2.844c0.667-0.799,1.535-1.458,2.498-1.83
			c0.963-0.398,1.99-0.438,2.96-0.404c0.485,0.043,0.965,0.132,1.43,0.239c0.462,0.141,0.914,0.306,1.347,0.516l-0.022,0.199
			c-0.466,0.148-0.913,0.253-1.35,0.333c-0.435,0.122-0.858,0.223-1.271,0.316c-0.812,0.249-1.594,0.465-2.291,0.791
			c-0.702,0.305-1.393,0.622-1.98,1.12c-0.557,0.489-1.184,1.081-1.563,1.761l-0.559,1.003l-0.305-0.871
			c-0.264-0.755-0.712-1.488-1.326-2.014c-0.612-0.524-1.446-0.827-1.992-0.893c-0.138-0.032-0.249-0.017-0.354-0.033
			c-0.158,0.007-0.336-0.002-0.51,0.016c-0.352,0.019-0.718,0.063-1.097,0.118c-0.764,0.104-1.552,0.283-2.437,0.402
			L274.601,187.393z"/>
		<path style="fill:#263238;" d="M331.777,187.393c0.527-0.769,1.267-1.294,2.093-1.697c0.417-0.195,0.869-0.331,1.345-0.412
			c0.239-0.04,0.479-0.061,0.737-0.06c0.311,0.019,0.616,0.077,0.871,0.195c1.041,0.482,1.484,1.357,1.983,2.056
			c0.499,0.717,1.027,1.348,1.612,2.028l-0.863,0.132c0.1-1.062,0.464-2.043,1.157-2.844c0.667-0.799,1.535-1.458,2.497-1.83
			c0.963-0.398,1.99-0.438,2.96-0.404c0.485,0.043,0.964,0.132,1.43,0.239c0.462,0.141,0.914,0.306,1.347,0.516l-0.022,0.199
			c-0.466,0.148-0.913,0.253-1.35,0.333c-0.435,0.122-0.858,0.223-1.271,0.316c-0.812,0.249-1.594,0.465-2.291,0.791
			c-0.702,0.305-1.393,0.622-1.979,1.12c-0.557,0.489-1.184,1.081-1.563,1.761l-0.559,1.003l-0.305-0.871
			c-0.264-0.755-0.713-1.488-1.326-2.014c-0.612-0.524-1.446-0.827-1.992-0.893c-0.138-0.032-0.249-0.017-0.354-0.033
			c-0.158,0.007-0.336-0.002-0.51,0.016c-0.352,0.019-0.718,0.063-1.097,0.118c-0.764,0.104-1.552,0.283-2.437,0.402
			L331.777,187.393z"/>
	</g>
</g>
<g id="Clouds">
	<path style="fill:none;stroke:#263238;stroke-miterlimit:10;" d="M594.469,139.853c-2.641-11.867-16.32-20.712-28.244-19.017
		c-2.972,0.422-5.863,1.534-8.095,3.588c-3.044,2.801-2.322,5.981-3.83,9.452c-0.418,0.963-1.234,1.819-2.271,1.997
		c-2.965,0.508-5.354-2.447-8.357-2.469c-2.245-0.016-5.115,1.224-6.367,3.162c-1.166,1.805-0.353,4.955-2.452,6.154
		c-2.347,1.34-5.201-1.209-7.738-0.287c-3.153,1.146-1.72,3.439-2.866,4.872c-1.146,1.433-3.439,0.86-6.592,0.573
		c-3.153-0.286-5.732,3.439-5.732,3.439h99.454c0,0,0.86-1.433-2.866-7.165c-3.726-5.732-8.885-1.72-11.178-1.72
		C595.044,142.433,594.47,139.857,594.469,139.853z"/>
	<path style="fill:none;stroke:#263238;stroke-miterlimit:10;" d="M637.371,210.622c-1.388-6.235-8.575-10.882-14.839-9.992
		c-1.561,0.222-3.08,0.806-4.253,1.885c-1.6,1.472-1.22,3.142-2.012,4.966c-0.22,0.506-0.648,0.956-1.193,1.049
		c-1.558,0.267-2.813-1.286-4.391-1.297c-1.18-0.009-2.688,0.643-3.345,1.661c-0.613,0.948-0.186,2.604-1.288,3.233
		c-1.233,0.704-2.733-0.635-4.066-0.151c-1.656,0.602-0.903,1.807-1.506,2.56c-0.602,0.753-1.807,0.452-3.464,0.301
		c-1.656-0.151-3.012,1.807-3.012,1.807h52.254c0,0,0.452-0.753-1.506-3.765c-1.958-3.012-4.668-0.904-5.873-0.904
		C637.674,211.977,637.372,210.624,637.371,210.622z"/>
	<path style="fill:none;stroke:#263238;stroke-miterlimit:10;" d="M243.679,221.185c-4.764-17.902-29.437-31.244-50.943-28.688
		c-5.36,0.637-10.575,2.315-14.602,5.413c-5.491,4.226-4.189,9.022-6.908,14.258c-0.755,1.453-2.226,2.744-4.096,3.013
		c-5.348,0.767-9.658-3.692-15.073-3.725c-4.049-0.025-9.226,1.846-11.484,4.77c-2.103,2.723-0.637,7.475-4.422,9.283
		c-4.233,2.022-9.381-1.824-13.958-0.432c-5.687,1.73-3.102,5.189-5.17,7.35c-2.068,2.162-6.204,1.297-11.89,0.865
		c-5.687-0.432-10.339,5.188-10.339,5.188H274.18c0,0,1.551-2.162-5.17-10.809c-6.72-8.647-16.026-2.594-20.162-2.594
		C244.716,225.077,243.681,221.192,243.679,221.185z"/>
</g>
<g id="Cargo_Ship">
	<g>
		<g>
			<g>
				<rect x="245.056" y="343.309" style="fill:#FFFFFF;stroke:#263238;stroke-miterlimit:10;" width="45.52" height="12.198"/>
				<rect x="259.332" y="343.309" style="fill:#FFFFFF;stroke:#263238;stroke-miterlimit:10;" width="31.244" height="12.198"/>
			</g>
			<g>
				<rect x="245.056" y="331.409" style="fill:#FFFFFF;stroke:#263238;stroke-miterlimit:10;" width="45.52" height="12.198"/>
				<rect x="259.332" y="331.409" style="fill:#FFFFFF;stroke:#263238;stroke-miterlimit:10;" width="31.244" height="12.198"/>
			</g>
			<g>
				<rect x="245.056" y="319.508" style="fill:#FFFFFF;stroke:#263238;stroke-miterlimit:10;" width="45.52" height="12.198"/>
				<rect x="259.332" y="319.508" style="fill:#FFFFFF;stroke:#263238;stroke-miterlimit:10;" width="31.244" height="12.198"/>
			</g>
			<g>
				<rect x="262.014" y="343.309" style="fill:#FFFFFF;stroke:#263238;stroke-miterlimit:10;" width="45.52" height="12.198"/>
				<rect x="276.29" y="343.309" style="fill:#FFFFFF;stroke:#263238;stroke-miterlimit:10;" width="31.244" height="12.198"/>
			</g>
			<g>
				<rect x="262.014" y="331.409" style="fill:#FFFFFF;stroke:#263238;stroke-miterlimit:10;" width="45.52" height="12.198"/>
				<rect x="276.29" y="331.409" style="fill:#FFFFFF;stroke:#263238;stroke-miterlimit:10;" width="31.244" height="12.198"/>
			</g>
			<g>
				<rect x="262.014" y="319.508" style="fill:#FFFFFF;stroke:#263238;stroke-miterlimit:10;" width="45.52" height="12.198"/>
				<rect x="276.29" y="319.508" style="fill:#FFFFFF;stroke:#263238;stroke-miterlimit:10;" width="31.244" height="12.198"/>
			</g>
			<g>
				<rect x="278.973" y="343.309" style="fill:#8C8C8C;stroke:#263238;stroke-miterlimit:10;" width="45.52" height="12.198"/>
				<rect x="293.249" y="343.309" style="fill:#8C8C8C;stroke:#263238;stroke-miterlimit:10;" width="31.244" height="12.198"/>
			</g>
			<g>
				<rect x="278.973" y="331.409" style="fill:#FFFFFF;stroke:#263238;stroke-miterlimit:10;" width="45.52" height="12.198"/>
				<rect x="293.249" y="331.409" style="fill:#FFFFFF;stroke:#263238;stroke-miterlimit:10;" width="31.244" height="12.198"/>
			</g>
			<g>
				<rect x="278.973" y="319.508" style="fill:#92E3A9;stroke:#263238;stroke-miterlimit:10;" width="45.52" height="12.198"/>
				<rect x="293.249" y="319.508" style="fill:#92E3A9;stroke:#263238;stroke-miterlimit:10;" width="31.244" height="12.198"/>
			</g>
		</g>
		<g>
			<rect x="261.776" y="278.148" style="fill:#FFFFFF;stroke:#263238;stroke-miterlimit:10;" width="1.723" height="20.34"/>
			<rect x="260.245" y="292.173" style="fill:#FFFFFF;stroke:#263238;stroke-miterlimit:10;" width="4.785" height="8.995"/>
			<polygon style="fill:#FFFFFF;stroke:#263238;stroke-miterlimit:10;" points="230.831,310.95 244.341,312.803 244.341,305.469 
				230.831,305.469 			"/>
			<rect x="244.341" y="300.211" style="fill:#FFFFFF;stroke:#263238;stroke-miterlimit:10;" width="39.827" height="5.258"/>
			<rect x="275.445" y="300.211" style="fill:#FFFFFF;stroke:#263238;stroke-miterlimit:10;" width="8.723" height="5.258"/>
			<rect x="240.264" y="305.469" style="fill:#FFFFFF;stroke:#263238;stroke-miterlimit:10;" width="41.3" height="52.108"/>
			<rect x="277.318" y="305.469" style="fill:#FFFFFF;stroke:#263238;stroke-miterlimit:10;" width="10.378" height="52.108"/>
			<g>
				<polygon style="fill:#FFFFFF;stroke:#263238;stroke-miterlimit:10;" points="295.073,310.95 281.564,312.803 281.564,305.469 
					295.073,305.469 				"/>
				<rect x="295.073" y="305.469" style="fill:#FFFFFF;stroke:#263238;stroke-miterlimit:10;" width="3.35" height="5.686"/>
				<polygon style="fill:#FFFFFF;stroke:#263238;stroke-miterlimit:10;" points="298.424,311.155 288.54,313.009 281.564,313.009 
					295.073,311.155 				"/>
			</g>
			<g>
				<rect x="242.255" y="309.397" style="fill:#263238;" width="2.085" height="3.406"/>
				<rect x="245.72" y="309.397" style="fill:#263238;" width="2.086" height="3.406"/>
			</g>
			<g>
				<rect x="254.59" y="309.397" style="fill:#263238;" width="2.085" height="3.406"/>
				<rect x="258.054" y="309.397" style="fill:#263238;" width="2.086" height="3.406"/>
			</g>
			<g>
				<rect x="266.924" y="309.397" style="fill:#263238;" width="2.085" height="3.406"/>
				<rect x="270.388" y="309.397" style="fill:#263238;" width="2.085" height="3.406"/>
			</g>
			<g>
				<rect x="242.255" y="319.923" style="fill:#263238;" width="2.085" height="3.406"/>
				<rect x="245.72" y="319.923" style="fill:#263238;" width="2.086" height="3.406"/>
			</g>
			<g>
				<rect x="254.59" y="319.923" style="fill:#263238;" width="2.085" height="3.406"/>
				<rect x="258.054" y="319.923" style="fill:#263238;" width="2.086" height="3.406"/>
			</g>
			<g>
				<rect x="266.924" y="319.923" style="fill:#263238;" width="2.085" height="3.406"/>
				<rect x="270.388" y="319.923" style="fill:#263238;" width="2.085" height="3.406"/>
			</g>
			<g>
				<rect x="242.255" y="330.449" style="fill:#263238;" width="2.085" height="3.405"/>
				<rect x="245.72" y="330.449" style="fill:#263238;" width="2.086" height="3.405"/>
			</g>
			<g>
				<rect x="254.59" y="330.449" style="fill:#263238;" width="2.085" height="3.405"/>
				<rect x="258.054" y="330.449" style="fill:#263238;" width="2.086" height="3.405"/>
			</g>
			<g>
				<rect x="266.924" y="330.449" style="fill:#263238;" width="2.085" height="3.405"/>
				<rect x="270.388" y="330.449" style="fill:#263238;" width="2.085" height="3.405"/>
			</g>
			<g>
				<rect x="242.255" y="340.975" style="fill:#263238;" width="2.085" height="3.406"/>
				<rect x="245.72" y="340.975" style="fill:#263238;" width="2.086" height="3.406"/>
			</g>
			<g>
				<rect x="254.59" y="340.975" style="fill:#263238;" width="2.085" height="3.406"/>
				<rect x="258.054" y="340.975" style="fill:#263238;" width="2.086" height="3.406"/>
			</g>
			<g>
				<rect x="266.924" y="340.975" style="fill:#263238;" width="2.085" height="3.406"/>
				<rect x="270.388" y="340.975" style="fill:#263238;" width="2.085" height="3.406"/>
			</g>
			<rect x="246.274" y="302.125" style="fill:#263238;" width="4.402" height="2.871"/>
			<rect x="251.92" y="302.125" style="fill:#263238;" width="4.402" height="2.871"/>
			<rect x="257.566" y="302.125" style="fill:#263238;" width="4.402" height="2.871"/>
			<rect x="263.212" y="302.125" style="fill:#263238;" width="4.402" height="2.871"/>
			<rect x="268.857" y="302.125" style="fill:#263238;" width="4.402" height="2.871"/>
		</g>
		<g>
			<g>
				<rect x="176.246" y="343.309" style="fill:#FFFFFF;stroke:#263238;stroke-miterlimit:10;" width="45.52" height="12.198"/>
				<rect x="190.522" y="343.309" style="fill:#FFFFFF;stroke:#263238;stroke-miterlimit:10;" width="31.244" height="12.198"/>
			</g>
			<g>
				<rect x="176.246" y="331.409" style="fill:#FFFFFF;stroke:#263238;stroke-miterlimit:10;" width="45.52" height="12.198"/>
				<rect x="190.522" y="331.409" style="fill:#FFFFFF;stroke:#263238;stroke-miterlimit:10;" width="31.244" height="12.198"/>
			</g>
			<g>
				<rect x="176.246" y="319.508" style="fill:#FFFFFF;stroke:#263238;stroke-miterlimit:10;" width="45.52" height="12.198"/>
				<rect x="190.522" y="319.508" style="fill:#FFFFFF;stroke:#263238;stroke-miterlimit:10;" width="31.244" height="12.198"/>
			</g>
			<g>
				<rect x="193.204" y="343.309" style="fill:#FFFFFF;stroke:#263238;stroke-miterlimit:10;" width="45.52" height="12.198"/>
				<rect x="207.48" y="343.309" style="fill:#8C8C8C;stroke:#263238;stroke-miterlimit:10;" width="31.244" height="12.198"/>
			</g>
			<g>
				<rect x="193.204" y="331.409" style="fill:#FFFFFF;stroke:#263238;stroke-miterlimit:10;" width="45.52" height="12.198"/>
				<rect x="207.48" y="331.409" style="fill:#FFFFFF;stroke:#263238;stroke-miterlimit:10;" width="31.244" height="12.198"/>
			</g>
			<g>
				<rect x="193.204" y="319.508" style="fill:#FFFFFF;stroke:#263238;stroke-miterlimit:10;" width="45.52" height="12.198"/>
				<rect x="207.48" y="319.508" style="fill:#8C8C8C;stroke:#263238;stroke-miterlimit:10;" width="31.244" height="12.198"/>
			</g>
			<g>
				<rect x="210.163" y="343.309" style="fill:#FFFFFF;stroke:#263238;stroke-miterlimit:10;" width="45.52" height="12.198"/>
				<rect x="224.439" y="343.309" style="fill:#FFFFFF;stroke:#263238;stroke-miterlimit:10;" width="31.244" height="12.198"/>
			</g>
			<g>
				<rect x="210.163" y="331.409" style="fill:#C2C2C2;stroke:#263238;stroke-miterlimit:10;" width="45.52" height="12.198"/>
				<rect x="224.439" y="331.409" style="fill:#C2C2C2;stroke:#263238;stroke-miterlimit:10;" width="31.244" height="12.198"/>
			</g>
			<g>
				<rect x="210.163" y="319.508" style="fill:#8C8C8C;stroke:#263238;stroke-miterlimit:10;" width="45.52" height="12.198"/>
				<rect x="224.439" y="319.508" style="fill:#8C8C8C;stroke:#263238;stroke-miterlimit:10;" width="31.244" height="12.198"/>
			</g>
		</g>
		<g>
			<rect x="82.818" y="343.309" style="fill:#FFFFFF;stroke:#263238;stroke-miterlimit:10;" width="45.52" height="12.198"/>
			<rect x="97.094" y="343.309" style="fill:#FFFFFF;stroke:#263238;stroke-miterlimit:10;" width="31.244" height="12.198"/>
		</g>
		<g>
			<rect x="82.818" y="331.409" style="fill:#FFFFFF;stroke:#263238;stroke-miterlimit:10;" width="45.52" height="12.198"/>
			<rect x="97.094" y="331.409" style="fill:#FFFFFF;stroke:#263238;stroke-miterlimit:10;" width="31.244" height="12.198"/>
		</g>
		<g>
			<rect x="82.818" y="319.508" style="fill:#92E3A9;stroke:#263238;stroke-miterlimit:10;" width="45.52" height="12.198"/>
			<rect x="97.094" y="319.508" style="fill:#92E3A9;stroke:#263238;stroke-miterlimit:10;" width="31.244" height="12.198"/>
		</g>
		<g>
			<g>
				<rect x="122.204" y="343.309" style="fill:#FFFFFF;stroke:#263238;stroke-miterlimit:10;" width="45.52" height="12.198"/>
				<rect x="136.48" y="343.309" style="fill:#FFFFFF;stroke:#263238;stroke-miterlimit:10;" width="31.244" height="12.198"/>
			</g>
			<g>
				<rect x="122.204" y="331.409" style="fill:#FFFFFF;stroke:#263238;stroke-miterlimit:10;" width="45.52" height="12.198"/>
				<rect x="136.48" y="331.409" style="fill:#FFFFFF;stroke:#263238;stroke-miterlimit:10;" width="31.244" height="12.198"/>
			</g>
			<g>
				<rect x="122.204" y="319.508" style="fill:#FFFFFF;stroke:#263238;stroke-miterlimit:10;" width="45.52" height="12.198"/>
				<rect x="136.48" y="319.508" style="fill:#FFFFFF;stroke:#263238;stroke-miterlimit:10;" width="31.244" height="12.198"/>
			</g>
			<g>
				<rect x="139.163" y="343.309" style="fill:#FFFFFF;stroke:#263238;stroke-miterlimit:10;" width="45.52" height="12.198"/>
				<rect x="153.439" y="343.309" style="fill:#FFFFFF;stroke:#263238;stroke-miterlimit:10;" width="31.244" height="12.198"/>
			</g>
			<g>
				<rect x="139.163" y="331.409" style="fill:#FFFFFF;stroke:#263238;stroke-miterlimit:10;" width="45.52" height="12.198"/>
				<rect x="153.439" y="331.409" style="fill:#FFFFFF;stroke:#263238;stroke-miterlimit:10;" width="31.244" height="12.198"/>
			</g>
			<g>
				<rect x="139.163" y="319.508" style="fill:#FFFFFF;stroke:#263238;stroke-miterlimit:10;" width="45.52" height="12.198"/>
				<rect x="153.439" y="319.508" style="fill:#FFFFFF;stroke:#263238;stroke-miterlimit:10;" width="31.244" height="12.198"/>
			</g>
			<g>
				<rect x="156.121" y="343.309" style="fill:#92E3A9;stroke:#263238;stroke-miterlimit:10;" width="45.52" height="12.198"/>
				<rect x="170.397" y="343.309" style="fill:#92E3A9;stroke:#263238;stroke-miterlimit:10;" width="31.244" height="12.198"/>
			</g>
			<g>
				<rect x="156.121" y="331.409" style="fill:#FFFFFF;stroke:#263238;stroke-miterlimit:10;" width="45.52" height="12.198"/>
				<rect x="170.397" y="331.409" style="fill:#FFFFFF;stroke:#263238;stroke-miterlimit:10;" width="31.244" height="12.198"/>
			</g>
			<g>
				<rect x="156.121" y="319.508" style="fill:#92E3A9;stroke:#263238;stroke-miterlimit:10;" width="45.52" height="12.198"/>
				<rect x="170.397" y="319.508" style="fill:#92E3A9;stroke:#263238;stroke-miterlimit:10;" width="31.244" height="12.198"/>
			</g>
		</g>
		<g>
			<rect x="99.777" y="343.309" style="fill:#FFFFFF;stroke:#263238;stroke-miterlimit:10;" width="45.52" height="12.198"/>
			<rect x="114.053" y="343.309" style="fill:#FFFFFF;stroke:#263238;stroke-miterlimit:10;" width="31.244" height="12.198"/>
		</g>
		<g>
			<rect x="99.777" y="331.409" style="fill:#FFFFFF;stroke:#263238;stroke-miterlimit:10;" width="45.52" height="12.198"/>
			<rect x="114.053" y="331.409" style="fill:#FFFFFF;stroke:#263238;stroke-miterlimit:10;" width="31.244" height="12.198"/>
		</g>
		<g>
			<rect x="99.777" y="319.508" style="fill:#92E3A9;stroke:#263238;stroke-miterlimit:10;" width="45.52" height="12.198"/>
			<rect x="114.053" y="319.508" style="fill:#92E3A9;stroke:#263238;stroke-miterlimit:10;" width="31.244" height="12.198"/>
		</g>
		<g>
			<rect x="116.735" y="343.309" style="fill:#FFFFFF;stroke:#263238;stroke-miterlimit:10;" width="45.52" height="12.198"/>
			<rect x="131.011" y="343.309" style="fill:#FFFFFF;stroke:#263238;stroke-miterlimit:10;" width="31.244" height="12.198"/>
		</g>
		<g>
			<rect x="116.735" y="331.409" style="fill:#FFFFFF;stroke:#263238;stroke-miterlimit:10;" width="45.52" height="12.198"/>
			<rect x="131.011" y="331.409" style="fill:#C2C2C2;stroke:#263238;stroke-miterlimit:10;" width="31.244" height="12.198"/>
		</g>
		<g>
			<rect x="116.735" y="319.508" style="fill:#FFFFFF;stroke:#263238;stroke-miterlimit:10;" width="45.52" height="12.198"/>
			<rect x="131.011" y="319.508" style="fill:#FFFFFF;stroke:#263238;stroke-miterlimit:10;" width="31.244" height="12.198"/>
		</g>
		<g>
			<path style="fill:#FFFFFF;stroke:#263238;stroke-miterlimit:10;" d="M139.644,346.284v-13.091c0,0,1.488-0.893,2.38,1.785
				c0.893,2.678,4.609,14.43,4.609,14.43L139.644,346.284z"/>
			<rect x="79.843" y="333.207" style="fill:#FFFFFF;stroke:#263238;stroke-miterlimit:10;" width="59.801" height="12.185"/>
		</g>
		<g>
			<path style="fill:#263238;stroke:#263238;stroke-miterlimit:10;" d="M330.443,354.135H156.081l-9.598-8.798H72.899l20.396,30.393
				c0,0,1.6,4.799-3.199,5.999c-1.737,0.434-3.475,0.764-4.984,1.008c-2.655,0.428-4.614,2.702-4.614,5.391l0,0h218.915
				C299.412,388.127,326.044,384.928,330.443,354.135z"/>
			<path style="fill:#FFFFFF;stroke:#263238;stroke-miterlimit:10;" d="M92.59,380.315c-0.525,0.605-1.315,1.119-2.495,1.414
				c-1.737,0.434-3.475,0.764-4.984,1.008c-2.655,0.428-4.614,2.702-4.614,5.391h218.915c0,0,8.795-1.069,17.112-7.813H92.59z"/>
		</g>
	</g>
</g>
<g id="Port">
	<g>
		<rect x="456.456" y="238.48" style="fill:#263238;stroke:#263238;stroke-miterlimit:10;" width="6.707" height="139.446"/>
		<rect x="432.356" y="338.165" style="fill:#263238;stroke:#263238;stroke-miterlimit:10;" width="51.737" height="7.665"/>
		<rect x="411.278" y="238.48" style="fill:#263238;stroke:#263238;stroke-miterlimit:10;" width="6.707" height="139.446"/>
		<rect x="442.165" y="238.48" style="fill:#263238;stroke:#263238;stroke-miterlimit:10;" width="6.707" height="139.446"/>
		<rect x="256.185" y="377.885" style="fill:#C2C2C2;stroke:#263238;stroke-miterlimit:10;" width="445.707" height="10.243"/>
		<rect x="423.852" y="377.885" style="fill:#263238;stroke:#263238;stroke-miterlimit:10;" width="278.042" height="10.243"/>
		<g>
			<rect x="330.798" y="222.672" style="fill:#FFFFFF;stroke:#263238;stroke-miterlimit:10;" width="32.575" height="11.976"/>
			<rect x="349.002" y="222.672" style="fill:#FFFFFF;stroke:#263238;stroke-miterlimit:10;" width="14.371" height="11.976"/>
		</g>
		<g>
			<rect x="380.14" y="222.672" style="fill:#FFFFFF;stroke:#263238;stroke-miterlimit:10;" width="32.575" height="11.976"/>
			<rect x="398.344" y="222.672" style="fill:#FFFFFF;stroke:#263238;stroke-miterlimit:10;" width="14.371" height="11.976"/>
		</g>
		<rect x="389.242" y="338.165" style="fill:#92E3A9;stroke:#263238;stroke-miterlimit:10;" width="51.737" height="7.665"/>
		<rect x="385.409" y="238.48" style="fill:#92E3A9;stroke:#263238;stroke-miterlimit:10;" width="6.707" height="139.446"/>
		<rect x="415.589" y="238.48" style="fill:#92E3A9;stroke:#263238;stroke-miterlimit:10;" width="6.707" height="139.446"/>
		<rect x="437.146" y="238.48" style="fill:#92E3A9;stroke:#263238;stroke-miterlimit:10;" width="6.707" height="139.446"/>
		<rect x="459.661" y="238.48" style="fill:#92E3A9;stroke:#263238;stroke-miterlimit:10;" width="6.707" height="139.446"/>
		<rect x="481.218" y="238.48" style="fill:#263238;stroke:#263238;stroke-miterlimit:10;" width="6.707" height="139.446"/>
		<rect x="421.686" y="175.511" style="fill:#92E3A9;stroke:#263238;stroke-miterlimit:10;" width="4.506" height="61.388"/>
		<polyline style="fill:none;stroke:#263238;stroke-width:2;stroke-miterlimit:10;" points="300.618,235.606 424.452,175.725 
			406.008,238.48 		"/>
		<g>
			<rect x="313.552" y="234.648" style="fill:#92E3A9;stroke:#263238;stroke-miterlimit:10;" width="257.247" height="3.832"/>
			<rect x="560.261" y="234.648" style="fill:#263238;stroke:#263238;stroke-miterlimit:10;" width="10.539" height="3.832"/>
		</g>
		<polyline style="fill:none;stroke:#263238;stroke-width:2;stroke-miterlimit:10;" points="539.183,235.606 424.452,175.725 
			433.793,238.48 		"/>
		<g>
			<rect x="295.349" y="234.648" style="fill:#92E3A9;stroke:#263238;stroke-miterlimit:10;" width="257.247" height="3.832"/>
			<rect x="542.057" y="234.648" style="fill:#263238;stroke:#263238;stroke-miterlimit:10;" width="10.539" height="3.832"/>
		</g>
		<g>
			<rect x="415.35" y="171.414" style="fill:#92E3A9;stroke:#263238;stroke-miterlimit:10;" width="18.204" height="8.144"/>
			<rect x="406.248" y="169.018" style="fill:#92E3A9;stroke:#263238;stroke-miterlimit:10;" width="35.449" height="2.395"/>
		</g>
		<g>
			<g>
				<rect x="336.445" y="365.448" style="fill:#FFFFFF;stroke:#263238;stroke-miterlimit:10;" width="45.52" height="12.198"/>
				<rect x="350.721" y="365.448" style="fill:#FFFFFF;stroke:#263238;stroke-miterlimit:10;" width="31.244" height="12.198"/>
			</g>
			<g>
				<rect x="336.445" y="353.548" style="fill:#C2C2C2;stroke:#263238;stroke-miterlimit:10;" width="45.52" height="12.198"/>
				<rect x="350.721" y="353.548" style="fill:#C2C2C2;stroke:#263238;stroke-miterlimit:10;" width="31.244" height="12.198"/>
			</g>
			<g>
				<rect x="336.445" y="341.647" style="fill:#FFFFFF;stroke:#263238;stroke-miterlimit:10;" width="45.52" height="12.198"/>
				<rect x="350.721" y="341.647" style="fill:#FFFFFF;stroke:#263238;stroke-miterlimit:10;" width="31.244" height="12.198"/>
			</g>
			<g>
				<rect x="353.403" y="365.448" style="fill:#92E3A9;stroke:#263238;stroke-miterlimit:10;" width="45.52" height="12.198"/>
				<rect x="367.679" y="365.448" style="fill:#92E3A9;stroke:#263238;stroke-miterlimit:10;" width="31.244" height="12.198"/>
			</g>
			<g>
				<rect x="353.403" y="353.548" style="fill:#FFFFFF;stroke:#263238;stroke-miterlimit:10;" width="45.52" height="12.198"/>
				<rect x="367.679" y="353.548" style="fill:#FFFFFF;stroke:#263238;stroke-miterlimit:10;" width="31.244" height="12.198"/>
			</g>
			<g>
				<rect x="353.403" y="341.647" style="fill:#8C8C8C;stroke:#263238;stroke-miterlimit:10;" width="45.52" height="12.198"/>
				<rect x="367.679" y="341.647" style="fill:#8C8C8C;stroke:#263238;stroke-miterlimit:10;" width="31.244" height="12.198"/>
			</g>
			<g>
				<rect x="370.362" y="365.448" style="fill:#C2C2C2;stroke:#263238;stroke-miterlimit:10;" width="45.52" height="12.198"/>
				<rect x="384.638" y="365.448" style="fill:#C2C2C2;stroke:#263238;stroke-miterlimit:10;" width="31.244" height="12.198"/>
			</g>
			<g>
				<rect x="370.362" y="353.548" style="fill:#92E3A9;stroke:#263238;stroke-miterlimit:10;" width="45.52" height="12.198"/>
				<rect x="384.638" y="353.548" style="fill:#92E3A9;stroke:#263238;stroke-miterlimit:10;" width="31.244" height="12.198"/>
			</g>
			<g>
				<rect x="370.362" y="341.647" style="fill:#FFFFFF;stroke:#263238;stroke-miterlimit:10;" width="45.52" height="12.198"/>
				<rect x="384.638" y="341.647" style="fill:#FFFFFF;stroke:#263238;stroke-miterlimit:10;" width="31.244" height="12.198"/>
			</g>
		</g>
		<rect x="309.72" y="238.48" style="fill:#92E3A9;stroke:#263238;stroke-miterlimit:10;" width="27.785" height="5.269"/>
		<rect x="341.337" y="238.48" style="fill:#92E3A9;stroke:#263238;stroke-miterlimit:10;" width="27.785" height="5.269"/>
		<rect x="505.171" y="238.48" style="fill:#92E3A9;stroke:#263238;stroke-miterlimit:10;" width="27.785" height="5.269"/>
		<rect x="536.788" y="238.48" style="fill:#92E3A9;stroke:#263238;stroke-miterlimit:10;" width="27.785" height="5.269"/>
		<g>
			<rect x="519.369" y="319.154" style="fill:#FFFFFF;stroke:#263238;stroke-miterlimit:10;" width="51.13" height="55.292"/>
			<rect x="519.369" y="322.592" style="fill:#FFFFFF;stroke:#263238;stroke-miterlimit:10;" width="51.13" height="55.292"/>
			<line style="fill:none;stroke:#263238;stroke-miterlimit:10;" x1="528.287" y1="377.289" x2="528.287" y2="323.186"/>
			<line style="fill:none;stroke:#263238;stroke-miterlimit:10;" x1="534.233" y1="377.289" x2="534.233" y2="323.186"/>
			<line style="fill:none;stroke:#263238;stroke-miterlimit:10;" x1="527.972" y1="326.525" x2="533.664" y2="326.525"/>
			<line style="fill:none;stroke:#263238;stroke-miterlimit:10;" x1="527.972" y1="331.363" x2="533.664" y2="331.363"/>
			<line style="fill:none;stroke:#263238;stroke-miterlimit:10;" x1="527.972" y1="336.2" x2="533.664" y2="336.2"/>
			<line style="fill:none;stroke:#263238;stroke-miterlimit:10;" x1="527.972" y1="341.038" x2="533.664" y2="341.038"/>
			<line style="fill:none;stroke:#263238;stroke-miterlimit:10;" x1="527.972" y1="345.875" x2="533.664" y2="345.875"/>
			<line style="fill:none;stroke:#263238;stroke-miterlimit:10;" x1="527.972" y1="350.713" x2="533.664" y2="350.713"/>
			<line style="fill:none;stroke:#263238;stroke-miterlimit:10;" x1="527.972" y1="355.55" x2="533.664" y2="355.55"/>
			<line style="fill:none;stroke:#263238;stroke-miterlimit:10;" x1="527.972" y1="360.388" x2="533.664" y2="360.388"/>
			<line style="fill:none;stroke:#263238;stroke-miterlimit:10;" x1="527.972" y1="365.226" x2="533.664" y2="365.226"/>
			<line style="fill:none;stroke:#263238;stroke-miterlimit:10;" x1="527.972" y1="370.063" x2="533.664" y2="370.063"/>
			<line style="fill:none;stroke:#263238;stroke-miterlimit:10;" x1="527.972" y1="374.901" x2="533.664" y2="374.901"/>
		</g>
		<rect x="553.076" y="334.743" style="fill:#92E3A9;stroke:#263238;stroke-miterlimit:10;" width="123.761" height="43.546"/>
		<rect x="652.107" y="334.743" style="fill:#92E3A9;stroke:#263238;stroke-miterlimit:10;" width="24.73" height="43.546"/>
		<rect x="549.065" y="326.56" style="fill:#C2C2C2;stroke:#263238;stroke-miterlimit:10;" width="131.782" height="25.372"/>
		<rect x="652.214" y="326.56" style="fill:#263238;stroke:#263238;stroke-miterlimit:10;" width="28.634" height="25.372"/>
		<rect x="559.379" y="356.516" style="fill:#263238;stroke:#263238;stroke-miterlimit:10;" width="10.313" height="10.313"/>
		<rect x="620.686" y="356.516" style="fill:#263238;stroke:#263238;stroke-miterlimit:10;" width="10.313" height="10.313"/>
		<rect x="588.6" y="356.516" style="fill:#263238;stroke:#263238;stroke-miterlimit:10;" width="10.313" height="21.773"/>
	</g>
</g>
<g id="Sea">
	<g>
		<line style="fill:none;stroke:#263238;stroke-miterlimit:10;" x1="495.601" y1="395.665" x2="514.864" y2="395.665"/>
		<line style="fill:none;stroke:#263238;stroke-miterlimit:10;" x1="528.264" y1="396.503" x2="591.079" y2="396.503"/>
		<g>
			<line style="fill:none;stroke:#263238;stroke-miterlimit:10;" x1="19.046" y1="388.127" x2="734.297" y2="388.127"/>
			<line style="fill:none;stroke:#263238;stroke-miterlimit:10;" x1="72.648" y1="403.203" x2="122.062" y2="403.203"/>
			<line style="fill:none;stroke:#263238;stroke-miterlimit:10;" x1="154.726" y1="396.503" x2="284.543" y2="396.503"/>
			<line style="fill:none;stroke:#263238;stroke-miterlimit:10;" x1="220.891" y1="403.203" x2="256.904" y2="403.203"/>
			<line style="fill:none;stroke:#263238;stroke-miterlimit:10;" x1="145.513" y1="404.878" x2="163.101" y2="404.878"/>
			<line style="fill:none;stroke:#263238;stroke-miterlimit:10;" x1="336.47" y1="394.828" x2="377.509" y2="394.828"/>
			<line style="fill:none;stroke:#263238;stroke-miterlimit:10;" x1="307.994" y1="404.04" x2="366.621" y2="404.04"/>
			<line style="fill:none;stroke:#263238;stroke-miterlimit:10;" x1="410.173" y1="399.853" x2="462.937" y2="399.853"/>
			<line style="fill:none;stroke:#263238;stroke-miterlimit:10;" x1="466.287" y1="409.065" x2="518.214" y2="409.065"/>
			<line style="fill:none;stroke:#263238;stroke-miterlimit:10;" x1="359.921" y1="419.116" x2="410.173" y2="419.116"/>
			<line style="fill:none;stroke:#263238;stroke-miterlimit:10;" x1="560.928" y1="407.391" x2="586.054" y2="407.391"/>
			<line style="fill:none;stroke:#263238;stroke-miterlimit:10;" x1="606.155" y1="399.853" x2="657.244" y2="399.853"/>
			<line style="fill:none;stroke:#263238;stroke-miterlimit:10;" x1="605.317" y1="415.766" x2="647.194" y2="415.766"/>
			<line style="fill:none;stroke:#263238;stroke-miterlimit:10;" x1="655.569" y1="409.065" x2="674.832" y2="409.065"/>
			<line style="fill:none;stroke:#263238;stroke-miterlimit:10;" x1="684.045" y1="402.365" x2="714.196" y2="402.365"/>
			<line style="fill:none;stroke:#263238;stroke-miterlimit:10;" x1="175.664" y1="413.253" x2="197.44" y2="413.253"/>
			<line style="fill:none;stroke:#263238;stroke-miterlimit:10;" x1="60.922" y1="403.203" x2="50.034" y2="403.203"/>
			<line style="fill:none;stroke:#263238;stroke-miterlimit:10;" x1="118.712" y1="419.953" x2="63.435" y2="419.953"/>
		</g>
	</g>
</g>
</svg>
