<svg width="101" height="100" viewBox="0 0 101 100" fill="none" xmlns="http://www.w3.org/2000/svg">
<path d="M46.033 0.0563256C38.6393 0.502132 30.8564 3.2692 24.6978 7.6504C15.6968 14.0608 8.28619 24.3604 3.81952 36.7046C2.21219 41.132 0.960166 45.7591 0.317235 49.6791C-0.105745 52.231 -0.105745 59.3178 0.317235 61.9465C1.90764 72.0463 7.01725 80.9009 15.6461 88.5257C18.1839 90.7855 22.16 93.8139 23.7504 94.7055C23.8688 94.767 23.2766 94.0753 22.4307 93.1529C16.0352 86.2045 11.8392 78.0416 10.1473 69.2024C9.55513 66.1125 9.40286 61.2547 9.80892 58.2571C10.0458 56.4431 11.0271 52.6614 11.6531 51.0627C12.093 49.9558 13.2266 47.8652 14.2248 46.2972C15.443 44.3602 17.2026 41.8852 17.2872 41.9621C17.338 41.9928 17.1857 42.3925 16.9488 42.8537C15.5953 45.6669 14.0387 50.7091 13.5481 53.9066C12.3806 61.6083 13.9541 69.4944 18.1332 76.8118C23.1413 85.5434 31.8039 92.6456 41.9724 96.3504C47.708 98.4257 52.1577 99.4249 57.6227 99.8861C60.4143 100.117 67.2328 99.9783 69.8891 99.6401C76.4368 98.8254 82.3586 97.1344 88.1449 94.4442L90.852 93.1836L86.6222 93.0914C82.4601 93.0145 82.3755 92.9992 80.1252 92.4611C76.9613 91.6925 75.1848 91.0776 72.427 89.817C64.9148 86.3582 59.2469 81.2084 55.6769 74.5828C51.4133 66.712 50.7365 57.2732 53.8158 48.8798C57.9441 37.5963 67.7234 29.541 83.4583 24.468C87.9081 23.023 93.0177 21.7471 97.975 20.8555C99.0071 20.671 99.9038 20.4865 99.9884 20.4404C100.191 20.3174 97.6874 18.0577 95.8432 16.7049C90.7843 13.0154 82.9677 10.233 74.7957 9.24915C70.4474 8.72648 71.0565 8.95707 68.9078 6.974C67.8588 6.00553 66.4883 4.91407 65.8285 4.51438C60.5666 1.40912 52.7499 -0.343362 46.033 0.0563256ZM59.4161 12.339C62.377 13.9993 61.328 18.4112 57.8934 18.6726C55.6093 18.8417 53.9173 17.3966 53.9004 15.2752C53.9004 14.7833 54.0189 14.1376 54.1711 13.8148C55.034 11.924 57.4704 11.2322 59.4161 12.339Z" fill="#F2F5F7"/>
<path d="M80.4516 35.0716C76.2143 35.4369 73.1512 37.2233 71.0836 40.5322C70.4454 41.5471 70.2029 41.9483 70.1774 43.9579C70.1519 45.9676 70.4199 46.2161 71.058 47.2513C72.7938 50.0527 76.2653 51.697 80.5282 51.697C82.2129 51.697 82.5703 51.8391 81.8811 52.2857C81.1408 52.7931 80.6558 54.681 80.7579 56.7313C80.8345 58.4974 80.9366 58.8221 81.7279 59.9792C82.6724 61.4002 83.9487 62.3949 85.7865 63.1054C86.7821 63.4911 87.3436 63.5723 89.5133 63.5723C91.8617 63.5723 92.1936 63.5114 93.8017 62.9024C96.8904 61.7047 99.1111 59.5326 100.413 56.4674C100.923 55.2291 101 54.6607 101 51.9C101 48.7332 100.847 47.9415 99.8258 45.6477C96.7117 38.7052 88.7731 34.3814 80.4516 35.0716ZM86.9352 37.3451C91.632 39.0503 95.078 42.2373 96.9159 46.5206C98.5495 50.3978 98.4219 55.2494 96.584 58.1929C95.7672 59.5123 94.0059 60.9942 92.5765 61.5423C90.9939 62.1716 88.5689 62.0904 87.0373 61.4002C84.5868 60.2431 83.5147 58.6192 83.5147 56.0005C83.5147 53.9096 84.0763 52.8134 85.6079 51.8391C86.7055 51.1286 88.5434 50.9053 89.9728 51.2707C91.3767 51.6361 92.8572 53.057 93.2146 54.3968C93.4954 55.3915 93.4954 55.5945 93.0615 56.2847C92.6786 56.8937 92.4233 57.0764 91.9383 57.0764C91.4023 57.0764 91.2746 56.9546 91.0449 56.2035C90.8152 55.3509 90.7896 55.3306 89.8962 55.3915C89.0283 55.4524 89.0028 55.4727 88.9262 56.4065C88.8497 57.2185 88.9518 57.4621 89.4623 57.8681C90.9173 59.0251 93.4954 58.9439 94.9504 57.7057C95.7162 57.0358 95.7672 56.8734 95.7672 55.6148C95.7417 53.3412 94.2612 51.4331 91.6831 50.3775C89.8452 49.6264 88.4923 49.5655 85.9142 50.073C80.9621 51.0677 76.8269 50.3572 74.7083 48.1648C73.0746 46.4597 72.513 43.6989 73.4064 41.5877C73.9425 40.3495 75.8314 38.5834 77.5161 37.812C80.1963 36.5534 84.2039 36.3504 86.9352 37.3451Z" fill="#F2F5F7"/>
<path d="M65.774 53.9502C62.3279 54.5998 59.2648 57.0967 57.6822 60.5476C57.2738 61.4611 57.1206 62.3543 57.0185 64.3843C56.8398 68.9314 57.9375 71.6109 61.0006 74.1078C64.2934 76.767 66.3611 77.4775 71.0068 77.4775C74.2996 77.4775 75.6525 77.1933 78.8433 75.8333L81.2172 74.8183L83.1827 76.4219C85.8629 78.5534 87.0371 79 90.0237 79C92.5252 78.9797 93.2399 78.797 94.8736 77.6399C97.6815 75.6912 97.7581 71.7124 95.0268 69.6013C93.3165 68.2818 92.1423 67.8555 90.0237 67.8555C88.5176 67.8555 88.0071 67.9367 86.8584 68.4442C86.0927 68.7893 84.8929 69.4795 84.1782 69.987C82.2893 71.347 82.0085 71.3673 81.0385 70.2103C79.3027 68.1397 78.0009 65.5819 76.3673 61.0348C75.1675 57.6854 73.1254 55.29 70.675 54.3562C69.3987 53.869 67.1779 53.666 65.774 53.9502ZM69.3986 55.7569C71.211 56.6298 72.2576 58.335 73.687 62.6994C74.8357 66.3127 76.0609 68.7284 77.7967 70.7989C78.5625 71.7327 79.1751 72.6868 79.1751 72.9304C79.1751 74.2905 73.7636 75.8739 70.3176 75.5288C65.7484 75.0822 62.6853 72.9913 60.7964 69.0126C60.388 68.16 60.1838 67.2059 60.1072 65.5819C59.9285 62.9633 60.3624 61.0348 61.5366 59.1063C62.3024 57.8478 64.1658 56.2441 65.5187 55.696C66.5908 55.2291 68.4031 55.2697 69.3986 55.7569ZM91.8105 69.9464C94.2355 70.8192 95.231 73.2958 93.9292 75.2446C93.0613 76.5234 91.7084 77.1121 89.9981 76.9903C89.2579 76.9497 88.3134 76.7467 87.854 76.564C86.884 76.158 84.7398 74.6153 83.974 73.7627L83.4635 73.1943L84.1272 72.3823C84.7908 71.5906 87.6753 69.9261 88.7474 69.7028C89.7939 69.4998 90.815 69.581 91.8105 69.9464Z" fill="#F2F5F7"/>
</svg>
