<svg width="100" height="100" viewBox="0 0 100 100" fill="none" xmlns="http://www.w3.org/2000/svg">
<rect width="100" height="100" fill="#0F1114"/>
<path d="M48.0165 25.0282C44.3196 25.2511 40.4282 26.6346 37.3489 28.8252C32.8484 32.0304 29.1431 37.1802 26.9098 43.3523C26.1061 45.566 25.4801 47.8796 25.1586 49.8396C24.9471 51.1155 24.9471 54.6589 25.1586 55.9732C25.9538 61.0231 28.5086 65.4505 32.823 69.2629C34.092 70.3928 36.08 71.907 36.8752 72.3528C36.9344 72.3835 36.6383 72.0376 36.2153 71.5764C33.0176 68.1022 30.9196 64.0208 30.0737 59.6012C29.7776 58.0562 29.7014 55.6274 29.9045 54.1285C30.0229 53.2215 30.5136 51.3307 30.8266 50.5313C31.0465 49.9779 31.6133 48.9326 32.1124 48.1486C32.7215 47.1801 33.6013 45.9426 33.6436 45.981C33.669 45.9964 33.5929 46.1963 33.4744 46.4268C32.7976 47.8334 32.0194 50.3545 31.774 51.9533C31.1903 55.8041 31.9771 59.7472 34.0666 63.4059C36.5706 67.7717 40.902 71.3228 45.9862 73.1752C48.854 74.2129 51.0789 74.7125 53.8113 74.9431C55.2072 75.0583 58.6164 74.9892 59.9445 74.8201C63.2184 74.4127 66.1793 73.5672 69.0725 72.2221L70.426 71.5918L68.3111 71.5457C66.23 71.5073 66.1877 71.4996 65.0626 71.2306C63.4807 70.8462 62.5924 70.5388 61.2135 69.9085C57.4574 68.1791 54.6234 65.6042 52.8385 62.2914C50.7066 58.356 50.3683 53.6366 51.9079 49.4399C53.9721 43.7981 58.8617 39.7705 66.7292 37.234C68.954 36.5115 71.5088 35.8735 73.9875 35.4277C74.5035 35.3355 74.9519 35.2433 74.9942 35.2202C75.0957 35.1587 73.8437 34.0288 72.9216 33.3524C70.3922 31.5077 66.4838 30.1165 62.3978 29.6246C60.2237 29.3632 60.5283 29.4785 59.4539 28.487C58.9294 28.0028 58.2442 27.457 57.9142 27.2572C55.2833 25.7046 51.375 24.8283 48.0165 25.0282ZM54.708 31.1695C56.1885 31.9996 55.664 34.2056 53.9467 34.3363C52.8046 34.4208 51.9587 33.6983 51.9502 32.6376C51.9502 32.3916 52.0094 32.0688 52.0856 31.9074C52.517 30.962 53.7352 30.6161 54.708 31.1695Z" fill="#F2F5F7"/>
</svg>
